<svg xmlns="http://www.w3.org/2000/svg" xmlns:xlink="http://www.w3.org/1999/xlink" version="1.1" width="256" height="256" viewBox="0 0 256 256" xml:space="preserve">
<g style="stroke: none; stroke-width: 0; stroke-dasharray: none; stroke-linecap: butt; stroke-linejoin: miter; stroke-miterlimit: 10; fill: none; fill-rule: nonzero; opacity: 1;" transform="translate(1.4065934065934016 1.4065934065934016) scale(2.81 2.81)">
	<path d="M 89.707 29.551 l -15.52 -15.519 c -0.011 -0.011 -0.025 -0.017 -0.037 -0.027 c -0.037 -0.034 -0.079 -0.062 -0.121 -0.09 c -0.041 -0.027 -0.081 -0.055 -0.125 -0.075 c -0.015 -0.007 -0.026 -0.018 -0.041 -0.024 c -0.03 -0.013 -0.063 -0.014 -0.094 -0.023 c -0.048 -0.015 -0.094 -0.029 -0.144 -0.036 c -0.05 -0.007 -0.099 -0.008 -0.149 -0.008 c -0.046 0 -0.091 0 -0.138 0.007 c -0.052 0.007 -0.1 0.022 -0.15 0.037 c -0.03 0.009 -0.062 0.01 -0.091 0.023 c -0.015 0.006 -0.026 0.018 -0.041 0.024 c -0.044 0.021 -0.084 0.048 -0.124 0.075 c -0.043 0.029 -0.085 0.056 -0.123 0.091 c -0.011 0.01 -0.026 0.016 -0.037 0.027 L 57.961 28.844 l -5.907 -5.908 c -0.153 -0.153 -0.352 -0.252 -0.566 -0.283 L 1.141 15.501 c -0.428 -0.057 -0.843 0.158 -1.035 0.543 c -0.192 0.385 -0.117 0.85 0.187 1.154 L 34.95 51.855 L 12.251 74.555 c -0.292 0.292 -0.375 0.732 -0.208 1.11 c 0.16 0.363 0.52 0.597 0.915 0.597 c 0.015 0 0.029 0 0.044 -0.001 l 32.48 -1.442 c 0.25 -0.011 0.486 -0.115 0.662 -0.292 l 6.446 -6.444 l 21.597 -21.598 c 0.015 -0.015 0.02 -0.035 0.034 -0.05 c 0.061 -0.069 0.111 -0.145 0.151 -0.228 c 0.014 -0.03 0.031 -0.057 0.042 -0.088 c 0.039 -0.108 0.066 -0.221 0.066 -0.341 v -14.52 H 89 c 0.404 0 0.77 -0.244 0.924 -0.617 C 90.079 30.267 89.993 29.837 89.707 29.551 z M 72.48 17.152 v 13.105 v 13.105 L 59.375 30.258 L 72.48 17.152 z M 45.006 72.838 l -29.521 1.311 L 36.364 53.27 L 50.47 67.375 L 45.006 72.838 z M 51.884 65.961 L 3.826 17.903 l 47.05 6.684 l 6.377 6.377 c 0 0 0 0.001 0.001 0.001 l 14.812 14.812 L 51.884 65.961 z M 74.48 29.258 V 17.152 l 12.105 12.105 H 74.48 z" style="stroke: none; stroke-width: 1; stroke-dasharray: none; stroke-linecap: butt; stroke-linejoin: miter; stroke-miterlimit: 10; fill: rgb(255,255,255); fill-rule: nonzero; opacity: 1;" transform=" matrix(1 0 0 1 0 0) " stroke-linecap="round"/>
</g>
</svg>